HIERARCHY
ROOT Hips
{
  OFFSET -22.8418 90.4822 14.0838
  CHANNELS 6 Xposition Yposition Zposition Zrotation Xrotation Yrotation
  JOINT ToSpine
  {
    OFFSET -2.69724 7.43032 -0.144315
    CHANNELS 3 Zrotation Xrotation Yrotation
    JOINT Spine
    {
      OFFSET -0.0310711 10.7595 1.96963
      CHANNELS 3 Zrotation Xrotation Yrotation
      JOINT Spine1
      {
        OFFSET 13.1342 3.43533 0.764692
        CHANNELS 3 Zrotation Xrotation Yrotation
        JOINT Neck
        {
          OFFSET 29.8703 7.82586 -0.130764
          CHANNELS 3 Zrotation Xrotation Yrotation
          JOINT Head
          {
            OFFSET 9.52751 0.295786 -0.907742
            CHANNELS 3 Zrotation Xrotation Yrotation
            End Site
            {
              OFFSET 16.4037 0.713936 2.7358
            }
          }
        }
        JOINT LeftShoulder
        {
          OFFSET 27.5574 4.95586 2.47156
          CHANNELS 3 Zrotation Xrotation Yrotation
          JOINT LeftArm
          {
            OFFSET 1.20734 -0.998971 20.1238
            CHANNELS 3 Zrotation Xrotation Yrotation
            JOINT LeftForeArm
            {
              OFFSET 26.8049 -0.0536703 -0.155908
              CHANNELS 3 Zrotation Xrotation Yrotation
              JOINT LeftHand
              {
                OFFSET 26.6817 0 0.320147
                CHANNELS 3 Zrotation Xrotation Yrotation
                End Site
                {
                  OFFSET 18.6119 0 0.382219
                }
              }
            }
          }
        }
        JOINT RightShoulder
        {
          OFFSET 27.5927 4.71444 -2.65209
          CHANNELS 3 Zrotation Xrotation Yrotation
          JOINT RightArm
          {
            OFFSET 2.83739 -1.17114 -18.7564
            CHANNELS 3 Zrotation Xrotation Yrotation
            JOINT RightForeArm
            {
              OFFSET 28.839 -0.0548439 1.22491
              CHANNELS 3 Zrotation Xrotation Yrotation
              JOINT RightHand
              {
                OFFSET 26.5114 0 -0.101894
                CHANNELS 3 Zrotation Xrotation Yrotation
                End Site
                {
                  OFFSET 18.2168 0 0
                }
              }
            }
          }
        }
      }
    }
  }
  JOINT LeftUpLeg
  {
    OFFSET -4.76168 -1.9167 -10.2353
    CHANNELS 3 Zrotation Xrotation Yrotation
    JOINT LeftLeg
    {
      OFFSET 2.55951 -42.0585 -8.02213
      CHANNELS 3 Zrotation Xrotation Yrotation
      JOINT LeftFoot
      {
        OFFSET 3.16357 -42.5282 -3.95426
        CHANNELS 3 Zrotation Xrotation Yrotation
        JOINT LeftToeBase
        {
          OFFSET 0.346054 -6.02161 12.8035
          CHANNELS 3 Zrotation Xrotation Yrotation
          End Site
          {
            OFFSET 0.134235 -1.35082 5.13018
          }
        }
      }
    }
  }
  JOINT RightUpLeg
  {
    OFFSET -4.94151 -1.41743 10.6446
    CHANNELS 3 Zrotation Xrotation Yrotation
    JOINT RightLeg
    {
      OFFSET -2.56294 -42.0364 -7.94377
      CHANNELS 3 Zrotation Xrotation Yrotation
      JOINT RightFoot
      {
        OFFSET -3.0952 -42.555 -4.02241
        CHANNELS 3 Zrotation Xrotation Yrotation
        JOINT RightToeBase
        {
          OFFSET -0.0828122 -6.13587 12.8035
          CHANNELS 3 Zrotation Xrotation Yrotation
          End Site
          {
            OFFSET -0.131328 -1.35082 5.13018
          }
        }
      }
    }
  }
}
MOTION
Frames:	11
Frame Time:	0.0333333
-3.80155 97.934 -316.866 -8.05243 -68.3144 -99.066 -70.1915 0 88.8779 62.1233 69.336 26.4798 5.90016 20.7649 2.02018 -159.23 19.4974 179.293 -160.501 59.129 -170.543 0.686073 -11.7827 -33.1917 -73.7969 48.5832 -87.8459 10.3979 17.8117 -30.5576 0.420957 0.000575496 0.35866 -1.78326 5.81676 45.205 -66.0933 -36.6594 95.1203 5.68439 -12.3924 26.6827 0.58676 0.000331152 0.0646654 -53.6598 -2.32812 96.8404 0.979878 21.2489 -6.20318 7.03177 -11.1513 -1.19071 2.08119 -7.46398 11.1163 -55.6091 -1.13721 79.4096 3.65057 17.4889 12.9278 -10.7181 -7.00899 1.42883 1.44109 -4.47474 -7.35051 
-3.78856 97.8118 -316.94 -8.09657 -68.355 -99.1104 -70.1915 0 88.8779 62.9027 69.541 25.5043 5.50585 20.7894 2.27016 -159.435 19.4758 179.062 -160.297 59.0653 -171.37 0.650007 -11.9474 -33.1349 -73.6414 48.831 -87.9216 10.7307 18.528 -30.432 0.420957 0.000575496 0.35866 -1.75853 5.73132 45.2474 -65.557 -36.5219 95.314 6.08925 -12.9055 26.9261 0.58676 0.000331152 0.0646654 -53.1197 -2.02154 96.8856 0.478193 22.4215 -6.28801 7.01387 -11.6617 -1.19866 2.1567 -7.71401 11.6678 -55.3008 -1.25431 79.2852 3.71396 18.1473 12.7948 -11.1952 -6.98971 1.46158 1.58066 -5.91405 -7.78733 
-3.82358 97.6281 -316.843 -7.42504 -68.4823 -98.333 -70.1915 0 88.8779 64.083 69.7124 23.8274 4.78375 20.6266 2.92682 -159.481 19.4487 178.653 -160.134 58.9974 -172.006 0.70678 -11.707 -32.9304 -73.5925 49.3721 -87.8563 10.8799 19.1347 -30.1292 0.420957 0.000575496 0.35866 -1.79619 5.68438 46.1234 -65.3679 -36.1107 94.6556 6.84738 -13.3253 27.846 0.58676 0.000331152 0.0646654 -52.278 -1.42777 96.8934 -0.444921 24.6405 -7.66399 6.60013 -13.3719 -1.23059 1.59059 -7.09998 13.2063 -54.772 -0.922912 79.6129 3.07435 19.4724 11.9989 -10.8833 -7.90857 1.42833 1.84826 -6.97526 -10.0197 
-3.73497 97.5448 -316.575 -6.58585 -68.6111 -97.1751 -70.1915 0 88.8779 63.9169 69.5565 24.0525 5.12261 20.4791 3.05141 -159.657 19.5379 178.596 -160.526 59.1412 -171.31 0.706438 -11.7125 -32.8689 -73.3941 49.6432 -87.8715 10.9196 19.5562 -29.8569 0.420957 0.000575496 0.35866 -1.73037 5.59655 45.5 -66.2036 -36.4361 94.0386 7.17594 -13.4298 28.5776 0.58676 0.000331152 0.0646654 -51.5001 -1.64837 95.5049 -0.535432 26.8385 -8.23284 5.24144 -16.9398 -1.33583 -1.12449 -3.16801 14.7129 -54.8027 -0.660451 79.7719 2.69665 19.9396 11.1925 -9.16336 -9.22755 1.31367 1.91949 -6.32532 -10.7758 
-3.45211 97.442 -316.438 -5.86094 -68.5991 -96.2266 -70.1915 0 88.8779 64.3163 69.6659 23.6684 5.03674 20.4538 3.40234 -159.885 19.7442 178.426 -160.207 59.3373 -171.486 0.595858 -12.1657 -33.4141 -72.7104 49.5795 -87.8857 10.8494 19.2466 -29.9865 0.420957 0.000575496 0.35866 -1.83259 5.80887 46.0507 -67.2367 -35.8056 93.0256 7.6888 -14.1257 29.0802 0.58676 0.000331152 0.0646654 -50.9841 -2.33038 93.5666 -0.542155 28.1443 -8.44945 3.84372 -19.1649 -1.47 -1.45333 -3.68708 18.349 -54.8595 -0.736674 79.6635 2.64289 20.1369 11.1426 -8.111 -9.6675 1.2683 2.09432 -8.0508 -12.1666 
-3.19363 97.3591 -315.997 -4.83689 -68.6665 -94.9214 -70.1915 0 88.8779 64.292 69.6559 23.6377 5.07453 20.3409 3.84963 -159.781 19.8673 178.231 -159.458 59.4217 -171.725 0.608948 -12.1018 -33.493 -71.1504 49.8417 -88.7464 10.5646 18.6583 -30.0042 0.420957 0.000575496 0.35866 -1.85668 5.94793 45.7085 -68.1065 -35.7991 92.5331 8.05732 -14.9602 28.8589 0.58676 0.000331152 0.0646654 -50.93 -2.7305 92.21 -0.716923 28.9739 -9.20837 2.88615 -20.7356 -1.60146 -1.49473 -4.46582 21.4619 -55.2609 -0.914609 79.3704 2.88693 20.2152 11.2109 -8.4922 -10.1586 1.28821 2.22427 -10.7731 -13.4643 
-2.88305 97.2574 -315.439 -3.44059 -68.6255 -93.3501 -70.1915 0 88.8779 62.9247 69.2918 24.8914 5.79545 20.1679 3.92655 -160.149 19.8688 178.059 -159.766 59.4538 -171.495 0.677254 -11.8224 -33.1844 -70.6259 50.3619 -88.9831 10.7375 18.6783 -30.2975 0.420957 0.000575496 0.35866 -1.8535 6.02594 45.259 -68.8368 -35.9514 92.5116 8.15998 -15.3754 28.5232 0.58676 0.000331152 0.0646654 -50.9028 -3.02921 91.5233 -0.99481 29.6194 -10.0386 2.59207 -22.0458 -1.69809 -1.48304 -5.00492 23.5106 -55.4522 -1.15096 79.2267 2.86621 20.6602 10.7447 -8.48948 -11.3762 1.29198 2.28746 -11.7564 -14.401 
-2.45867 97.1107 -314.954 -2.38849 -68.5256 -92.0576 -70.1915 0 88.8779 63.0782 69.3531 24.87 5.79209 20.219 3.93189 -159.902 19.9473 177.247 -158.571 59.4228 -172.483 0.653838 -11.9161 -33.3314 -70.3743 50.8186 -88.8277 10.9764 18.5701 -30.9296 0.420957 0.000575496 0.35866 -1.89801 6.10424 45.5626 -71.2632 -35.7737 90.3542 9.04597 -16.4962 29.3915 0.58676 0.000331152 0.0646654 -50.8049 -3.25864 90.9277 -1.21386 30.1737 -10.081 3.12891 -22.3848 -1.67838 -0.921479 -5.91398 24.1732 -55.3555 -0.967481 79.4859 2.4133 21.3077 10.1113 -8.67144 -12.1016 1.30029 2.30768 -13.1451 -14.9553 
-2.14576 96.9615 -314.444 -2.1247 -68.418 -91.4047 -70.1915 0 88.8779 64.6895 69.6762 23.696 5.41284 20.3664 3.66099 -159.891 20.0786 176.915 -158.973 59.6192 -171.518 0.740054 -11.5706 -32.6997 -69.8066 51.2428 -88.9612 10.3622 17.1214 -31.443 0.420957 0.000575496 0.35866 -1.91616 6.07305 46.0042 -72.4785 -35.4273 89.0595 8.56998 -15.336 29.7979 0.58676 0.000331152 0.0646654 -50.5512 -3.16138 90.4822 -1.38501 31.0487 -8.64842 4.4299 -23.2028 -1.62552 -0.903011 -5.61318 22.7878 -54.914 -0.169549 80.2881 1.40608 22.4401 9.56947 -8.61136 -12.7331 1.30154 2.34023 -13.8754 -15.9155 
-1.75766 96.6675 -313.954 -0.722855 -68.3574 -90.2643 -70.1915 0 88.8779 65.0104 69.9986 22.3452 5.19457 20.3681 4.26022 -159.886 20.1741 176.687 -158.505 59.7031 -171.445 0.642735 -11.9653 -33.3295 -69.7664 50.9274 -88.6353 10.5442 16.7615 -32.4404 0.420957 0.000575496 0.35866 -1.89042 6.06274 45.6537 -72.6258 -35.39 88.9175 8.06281 -14.4313 29.746 0.58676 0.000331152 0.0646654 -50.4094 -3.80468 90.2424 -1.41295 31.6167 -6.26203 6.6328 -22.9198 -1.44116 0.51181 -6.78795 19.1593 -53.1552 0.0443115 81.501 0.274334 26.2986 9.00805 -8.19889 -14.4078 1.30256 2.5424 -13.1192 -19.9262 
-1.50887 96.3013 -313.435 -0.0701968 -68.7166 -90.1435 -70.1915 0 88.8779 68.9604 70.8521 17.4206 4.31498 20.6356 4.10854 -159.989 20.2271 175.782 -157.218 59.6566 -172.283 0.678681 -11.8696 -32.4197 -69.1434 50.8426 -88.8085 11.3761 16.9308 -34.2266 0.420957 0.000575496 0.35866 -1.84867 5.97681 45.4324 -72.9876 -35.8474 88.9445 8.11064 -14.3611 30.0075 0.58676 0.000331152 0.0646654 -50.3285 -4.13486 91.0734 -1.58322 32.9332 -3.72967 7.74711 -22.4419 -1.34678 2.18052 -8.04868 13.1847 -50.4114 0.468344 85.4887 0.569035 32.5093 4.49522 -8.45203 -15.0509 1.30858 2.64897 -13.1865 -22.0744 
